<svg width="16" height="16" viewBox="0 0 16 16" fill="none" xmlns="http://www.w3.org/2000/svg">
<g clip-path="url(#clip0_53_1052)">
<path d="M15.9845 4.70404C15.9471 3.8539 15.8096 3.26944 15.6126 2.76299C15.4095 2.22541 15.0969 1.74412 14.6874 1.34401C14.2873 0.937683 13.8028 0.621948 13.2715 0.421957C12.7621 0.22502 12.1807 0.0875415 11.3306 0.0500586C10.4741 0.00940124 10.2022 0 8.02987 0C5.85757 0 5.58567 0.00940124 4.73236 0.0468842C3.88222 0.0843671 3.29775 0.221967 2.79143 0.418783C2.25373 0.621948 1.77243 0.934509 1.37233 1.34401C0.966002 1.74412 0.650389 2.22858 0.450277 2.75994C0.25334 3.26944 0.115862 3.85073 0.0783788 4.70087C0.0377215 5.55736 0.0283203 5.82926 0.0283203 8.00156C0.0283203 10.1739 0.0377215 10.4458 0.0752044 11.2991C0.112687 12.1492 0.250287 12.7337 0.447225 13.2401C0.650389 13.7777 0.966002 14.259 1.37233 14.6591C1.77243 15.0654 2.2569 15.3812 2.78825 15.5812C3.29775 15.7781 3.87904 15.9156 4.7293 15.9531C5.5825 15.9907 5.85452 16 8.02682 16C10.1991 16 10.471 15.9907 11.3243 15.9531C12.1745 15.9156 12.7589 15.7781 13.2653 15.5812C14.3405 15.1654 15.1907 14.3153 15.6064 13.2401C15.8032 12.7306 15.9408 12.1492 15.9783 11.2991C16.0158 10.4458 16.0252 10.1739 16.0252 8.00156C16.0252 5.82926 16.022 5.55736 15.9845 4.70404ZM14.5437 11.2366C14.5093 12.018 14.378 12.4399 14.2686 12.7212C13.9998 13.4183 13.4466 13.9715 12.7495 14.2403C12.4682 14.3497 12.0432 14.481 11.2649 14.5153C10.421 14.5529 10.1679 14.5622 8.03305 14.5622C5.89823 14.5622 5.64196 14.5529 4.8011 14.5153C4.01969 14.481 3.59774 14.3497 3.31643 14.2403C2.96956 14.1121 2.65383 13.909 2.39755 13.6433C2.13188 13.3838 1.92871 13.0713 1.80051 12.7244C1.69112 12.4431 1.55987 12.018 1.52556 11.2397C1.48795 10.3958 1.47867 10.1426 1.47867 8.00779C1.47867 5.87297 1.48795 5.6167 1.52556 4.77596C1.55987 3.99455 1.69112 3.5726 1.80051 3.29129C1.92871 2.9443 2.13188 2.62869 2.40073 2.37229C2.66006 2.10661 2.97262 1.90345 3.31961 1.77537C3.60091 1.66597 4.02604 1.53472 4.80427 1.50029C5.64818 1.46281 5.90141 1.45341 8.0361 1.45341C10.1741 1.45341 10.4272 1.46281 11.268 1.50029C12.0494 1.53472 12.4714 1.66597 12.7527 1.77537C13.0996 1.90345 13.4153 2.10661 13.6716 2.37229C13.9373 2.63174 14.1404 2.9443 14.2686 3.29129C14.378 3.5726 14.5093 3.99761 14.5437 4.77596C14.5812 5.61987 14.5906 5.87297 14.5906 8.00779C14.5906 10.1426 14.5812 10.3927 14.5437 11.2366Z" fill="white"/>
<path d="M8.0301 3.89137C5.76098 3.89137 3.91992 5.7323 3.91992 8.00154C3.91992 10.2708 5.76098 12.1117 8.0301 12.1117C10.2993 12.1117 12.1403 10.2708 12.1403 8.00154C12.1403 5.7323 10.2993 3.89137 8.0301 3.89137ZM8.0301 10.6677C6.55801 10.6677 5.36393 9.47375 5.36393 8.00154C5.36393 6.52933 6.55801 5.33537 8.0301 5.33537C9.50231 5.33537 10.6963 6.52933 10.6963 8.00154C10.6963 9.47375 9.50231 10.6677 8.0301 10.6677Z" fill="white"/>
<path d="M13.262 3.72887C13.262 4.25876 12.8323 4.68841 12.3023 4.68841C11.7724 4.68841 11.3428 4.25876 11.3428 3.72887C11.3428 3.19886 11.7724 2.76933 12.3023 2.76933C12.8323 2.76933 13.262 3.19886 13.262 3.72887Z" fill="white"/>
</g>
<defs>
<clipPath id="clip0_53_1052">
<rect width="16" height="16" fill="white"/>
</clipPath>
</defs>
</svg>
