<svg width="20" height="20" viewBox="0 0 20 20" fill="none" xmlns="http://www.w3.org/2000/svg">
<path d="M5.83301 6.66667C4.94895 6.66667 4.10111 7.01786 3.47598 7.64298C2.85086 8.2681 2.49967 9.11594 2.49967 10C2.49967 10.8841 2.85086 11.7319 3.47598 12.357C4.10111 12.9821 4.94895 13.3333 5.83301 13.3333H7.49967C7.72069 13.3333 7.93265 13.4211 8.08893 13.5774C8.24521 13.7337 8.33301 13.9457 8.33301 14.1667C8.33301 14.3877 8.24521 14.5996 8.08893 14.7559C7.93265 14.9122 7.72069 15 7.49967 15H5.83301C4.50693 15 3.23516 14.4732 2.29747 13.5355C1.35979 12.5979 0.833008 11.3261 0.833008 10C0.833008 8.67392 1.35979 7.40215 2.29747 6.46447C3.23516 5.52678 4.50693 5 5.83301 5H7.49967C7.72069 5 7.93265 5.0878 8.08893 5.24408C8.24521 5.40036 8.33301 5.61232 8.33301 5.83333C8.33301 6.05435 8.24521 6.26631 8.08893 6.42259C7.93265 6.57887 7.72069 6.66667 7.49967 6.66667H5.83301ZM11.6663 5.83333C11.6663 5.61232 11.7541 5.40036 11.9104 5.24408C12.0667 5.0878 12.2787 5 12.4997 5H14.1663C15.4924 5 16.7642 5.52678 17.7019 6.46447C18.6396 7.40215 19.1663 8.67392 19.1663 10C19.1663 11.3261 18.6396 12.5979 17.7019 13.5355C16.7642 14.4732 15.4924 15 14.1663 15H12.4997C12.2787 15 12.0667 14.9122 11.9104 14.7559C11.7541 14.5996 11.6663 14.3877 11.6663 14.1667C11.6663 13.9457 11.7541 13.7337 11.9104 13.5774C12.0667 13.4211 12.2787 13.3333 12.4997 13.3333H14.1663C15.0504 13.3333 15.8982 12.9821 16.5234 12.357C17.1485 11.7319 17.4997 10.8841 17.4997 10C17.4997 9.11594 17.1485 8.2681 16.5234 7.64298C15.8982 7.01786 15.0504 6.66667 14.1663 6.66667H12.4997C12.2787 6.66667 12.0667 6.57887 11.9104 6.42259C11.7541 6.26631 11.6663 6.05435 11.6663 5.83333ZM5.83301 10C5.83301 9.77899 5.9208 9.56702 6.07709 9.41074C6.23337 9.25446 6.44533 9.16667 6.66634 9.16667H13.333C13.554 9.16667 13.766 9.25446 13.9223 9.41074C14.0785 9.56702 14.1663 9.77899 14.1663 10C14.1663 10.221 14.0785 10.433 13.9223 10.5893C13.766 10.7455 13.554 10.8333 13.333 10.8333H6.66634C6.44533 10.8333 6.23337 10.7455 6.07709 10.5893C5.9208 10.433 5.83301 10.221 5.83301 10Z" fill="#4D4D4D"/>
</svg>
