<svg width="12" height="12" viewBox="0 0 12 12" fill="none" xmlns="http://www.w3.org/2000/svg">
<path d="M6.20672 8.94075L8.5711 10.4385C8.87335 10.6298 9.24835 10.3451 9.15872 9.99225L8.47585 7.30538C8.45656 7.23054 8.45878 7.15177 8.48227 7.07813C8.50575 7.0045 8.54954 6.93899 8.6086 6.88913L10.7288 5.12475C11.0071 4.893 10.8638 4.43063 10.5057 4.40738L7.7371 4.22738C7.66255 4.22209 7.59105 4.19574 7.5309 4.15139C7.47075 4.10704 7.42444 4.04652 7.39735 3.97688L6.3646 1.37663C6.33648 1.30273 6.28656 1.23913 6.22146 1.19425C6.15636 1.14937 6.07916 1.12534 6.0001 1.12534C5.92103 1.12534 5.84383 1.14937 5.77873 1.19425C5.71364 1.23913 5.66372 1.30273 5.6356 1.37663L4.60285 3.97688C4.57581 4.04659 4.52952 4.10719 4.46937 4.15161C4.40922 4.19603 4.33768 4.22243 4.2631 4.22775L1.49447 4.40775C1.13672 4.43063 0.992723 4.893 1.27135 5.12475L3.3916 6.8895C3.45059 6.93933 3.49434 7.00478 3.51782 7.07834C3.5413 7.1519 3.54356 7.23059 3.52435 7.30538L2.89135 9.79725C2.78372 10.2206 3.2341 10.5623 3.59635 10.3324L5.79385 8.94075C5.85561 8.90149 5.92728 8.88063 6.00047 8.88063C6.07366 8.88063 6.14533 8.90149 6.2071 8.94075H6.20672Z" fill="#FF8A00"/>
</svg>
