<svg width="18" height="18" viewBox="0 0 18 18" fill="none" xmlns="http://www.w3.org/2000/svg">
<path d="M18 3.41888C17.3306 3.71251 16.6174 3.90713 15.8737 4.00163C16.6388 3.54488 17.2226 2.82713 17.4971 1.96201C16.7839 2.38726 15.9964 2.68763 15.1571 2.85526C14.4799 2.13413 13.5146 1.68751 12.4616 1.68751C10.4186 1.68751 8.77387 3.34576 8.77387 5.37863C8.77387 5.67113 8.79862 5.95238 8.85938 6.22013C5.7915 6.07051 3.07687 4.60013 1.25325 2.36026C0.934875 2.91263 0.748125 3.54488 0.748125 4.22551C0.748125 5.50351 1.40625 6.63638 2.38725 7.29226C1.79437 7.28101 1.21275 7.10888 0.72 6.83776C0.72 6.84901 0.72 6.86363 0.72 6.87826C0.72 8.67151 1.99912 10.161 3.6765 10.5041C3.37612 10.5863 3.04875 10.6256 2.709 10.6256C2.47275 10.6256 2.23425 10.6121 2.01038 10.5626C2.4885 12.024 3.84525 13.0984 5.4585 13.1333C4.203 14.1154 2.60888 14.7071 0.883125 14.7071C0.5805 14.7071 0.29025 14.6936 0 14.6565C1.63462 15.7106 3.57188 16.3125 5.661 16.3125C12.4515 16.3125 16.164 10.6875 16.164 5.81176C16.164 5.64863 16.1584 5.49113 16.1505 5.33476C16.8829 4.81501 17.4982 4.16588 18 3.41888Z" fill="white"/>
</svg>
