<svg width="35" height="32" viewBox="0 0 35 32" fill="none" xmlns="http://www.w3.org/2000/svg">
<path d="M31.2749 4.3428C27.4022 4.3428 21.9311 4.66683 19.1352 7.46126C17.9247 8.67176 17.3202 10.6451 17.4771 12.8787C17.4975 13.1737 17.6937 13.425 17.9756 13.5181C18.256 13.6096 18.5641 13.5239 18.7559 13.2987C20.3108 11.4691 22.2435 10.0029 24.5046 8.94062C24.6964 8.84907 24.9231 8.84178 25.1295 8.91446C25.3111 8.97985 25.4535 9.10335 25.5276 9.26179C25.6816 9.58732 25.6322 10.016 25.1207 10.2572C25.0917 10.2717 25.0655 10.2906 25.0365 10.3037C25.0263 10.3081 25.0147 10.3066 25.006 10.311C19.4346 12.9296 16.6954 17.4983 15.4514 22.1964C14.5446 16.314 12.6294 12.8511 10.8202 10.7251C9.51095 9.02787 8.22341 8.12832 7.47943 7.61976C7.34136 7.52528 6.92435 7.24049 6.7514 7.06754C6.46803 6.78417 6.46803 6.3235 6.7514 6.04013C7.03477 5.7582 7.49687 5.7582 7.81218 6.07208C7.88923 6.1404 8.01272 6.22759 8.16966 6.33222L8.29902 6.41941C9.35108 7.14015 11.31 8.47851 13.0479 11.3601C13.2034 11.6173 13.5042 11.7554 13.7963 11.7002C14.0928 11.6479 14.3252 11.4197 14.3834 11.1247C14.7627 9.18768 14.5927 6.31328 12.8649 4.5855C10.069 1.7925 4.59789 1.46847 0.726671 1.46847C0.32553 1.4684 0 1.79393 0 2.195C0 6.06765 0.324032 11.5388 3.11846 14.3347C4.28387 15.5001 6.08147 16.0233 7.86736 16.0233C9.32486 16.0233 10.7533 15.6585 11.8476 15.0264C13.3399 18.1187 14.5316 22.7383 14.5316 29.805C14.5316 30.2061 14.8571 30.5316 15.2582 30.5316C15.6592 30.5316 15.9848 30.2061 15.9848 29.805C15.9848 25.8626 16.6605 21.1311 19.173 17.2366C20.18 18.2205 21.9137 18.8439 23.8347 18.902C23.9306 18.9049 24.0251 18.9063 24.1195 18.9063C26.0711 18.9063 27.796 18.2946 28.8815 17.2076C31.6773 14.4117 31.9999 8.94055 31.9999 5.06783C32.0015 4.66683 31.6774 4.3428 31.2749 4.3428Z" fill="#00B307"/>
</svg>
